<svg width="39" height="38" viewBox="0 0 39 38" fill="none" xmlns="http://www.w3.org/2000/svg">
    <path d="M27.4378 0.25H11.8962L0.916992 11.2292V26.7708L11.8962 37.75H27.4378L38.417 26.7708V11.2292L27.4378 0.25ZM34.2503 25.0417L25.7087 33.5833H13.6253L5.08366 25.0417V12.9583L13.6253 4.41667H25.7087L34.2503 12.9583V25.0417Z" fill="#E75444"/>
    <path d="M19.6668 29.4167C20.8174 29.4167 21.7502 28.4839 21.7502 27.3333C21.7502 26.1827 20.8174 25.25 19.6668 25.25C18.5162 25.25 17.5835 26.1827 17.5835 27.3333C17.5835 28.4839 18.5162 29.4167 19.6668 29.4167Z" fill="#E75444"/>
    <path d="M17.5835 8.58325H21.7502V23.1666H17.5835V8.58325Z" fill="#E75444"/>
</svg>
