<svg width="39" height="38" viewBox="0 0 39 38" fill="none" xmlns="http://www.w3.org/2000/svg">
    <path d="M33.9166 0.25H4.74992C3.64485 0.25 2.58504 0.688987 1.80364 1.47039C1.02224 2.25179 0.583252 3.3116 0.583252 4.41667V33.5833C0.583252 34.6884 1.02224 35.7482 1.80364 36.5296C2.58504 37.311 3.64485 37.75 4.74992 37.75H33.9166C35.0217 37.75 36.0815 37.311 36.8629 36.5296C37.6443 35.7482 38.0833 34.6884 38.0833 33.5833V4.41667C38.0833 3.3116 37.6443 2.25179 36.8629 1.47039C36.0815 0.688987 35.0217 0.25 33.9166 0.25ZM33.9166 33.5833H4.74992V4.41667H33.9166V33.5833ZM13.0833 29.4167H8.91658V19H13.0833V29.4167ZM21.4166 29.4167H17.2499V8.58333H21.4166V29.4167ZM29.7499 29.4167H25.5833V14.8333H29.7499V29.4167Z" fill="#E75444"/>
</svg>
